<svg width="40" height="22" viewBox="0 0 40 22" fill="none" xmlns="http://www.w3.org/2000/svg">
<path d="M23.9187 14.2185L20.2801 7.68892C20.1847 7.51808 19.9391 7.51808 19.844 7.68892L16.2055 14.2185C16.1633 14.294 16.1633 14.3859 16.2055 14.4616L19.844 20.9968C19.9391 21.1676 20.1847 21.1676 20.2801 20.9968L23.9187 14.4616C23.9607 14.3859 23.9607 14.294 23.9187 14.2185Z" fill="#384868"/>
<path d="M16.0097 14.0326L9.55504 2.48899C9.03134 1.55076 8.03801 0.968018 6.96326 0.968018H1.02549C0.879372 0.968018 0.787179 1.12531 0.858723 1.25301L4.19395 7.248C4.2363 7.32402 4.31639 7.37123 4.40306 7.37123H10.7104C10.8014 7.37123 10.8864 7.41726 10.9361 7.49367L11.1147 7.80023C11.1476 7.851 11.1111 7.91807 11.0505 7.91807H4.69542C4.63716 7.91807 4.60007 7.98067 4.62874 8.03196L7.43356 13.0718C7.86441 13.8432 8.67888 14.3215 9.56266 14.3215H15.8401C15.9885 14.3215 16.0819 14.162 16.0097 14.0326Z" fill="#384868"/>
<path d="M24.1189 14.0329L30.5732 2.48924C31.0972 1.55101 32.0903 0.968262 33.165 0.968262H39.1028C39.2492 0.968262 39.3413 1.12555 39.2698 1.25326L35.9343 7.24824C35.892 7.32426 35.8119 7.37147 35.7251 7.37147H29.4181C29.3269 7.37147 29.2418 7.4175 29.1924 7.49391L29.0138 7.80048C28.981 7.85124 29.0171 7.91831 29.0778 7.91831H35.4328C35.4914 7.91831 35.5282 7.98092 35.4998 8.03221L32.695 13.072C32.2641 13.8435 31.4496 14.3218 30.5659 14.3218H24.2884C24.1398 14.3218 24.0463 14.1623 24.1189 14.0329Z" fill="#384868"/>
</svg>
