<?xml version="1.0" standalone="no"?>
<!DOCTYPE svg PUBLIC "-//W3C//DTD SVG 20010904//EN"
 "http://www.w3.org/TR/2001/REC-SVG-20010904/DTD/svg10.dtd">
<svg version="1.0" xmlns="http://www.w3.org/2000/svg"
 width="300.000000pt" height="300.000000pt" viewBox="0 0 300.000000 300.000000"
 preserveAspectRatio="xMidYMid meet">
<metadata>
Created by potrace 1.14, written by Peter Selinger 2001-2017
</metadata>
<g transform="translate(0.000000,300.000000) scale(0.100000,-0.100000)"
fill="#000000" stroke="none">
<path d="M64 2249 c-5 -8 42 -100 122 -239 25 -43 87 -154 152 -270 127 -230
213 -378 235 -405 14 -18 47 -43 73 -56 46 -22 59 -23 297 -24 137 0 250 2
252 5 2 4 -69 137 -159 296 -89 159 -176 314 -193 344 -163 296 -175 314 -228
340 -41 20 -59 21 -294 19 -138 0 -254 -5 -257 -10z"/>
<path d="M2383 2239 c-30 -15 -53 -38 -82 -85 -23 -36 -41 -67 -41 -68 0 -4
-106 -195 -120 -216 -5 -8 -21 -35 -34 -60 -13 -25 -87 -157 -165 -295 -119
-211 -138 -251 -123 -256 9 -3 123 -5 254 -4 229 1 238 2 284 26 26 13 59 40
75 59 22 28 239 408 417 730 14 25 40 72 59 104 19 32 32 65 29 72 -4 9 -63
12 -258 13 -237 1 -256 0 -295 -20z"/>
<path d="M1477 1758 c-34 -55 -267 -487 -267 -495 1 -22 279 -508 291 -508 11
0 175 284 265 460 l26 51 -87 159 c-178 325 -195 355 -206 355 -5 0 -15 -10
-22 -22z"/>
</g>
</svg>
