<?xml version="1.0" standalone="no"?>
<!DOCTYPE svg PUBLIC "-//W3C//DTD SVG 20010904//EN"
 "http://www.w3.org/TR/2001/REC-SVG-20010904/DTD/svg10.dtd">
<svg version="1.0" xmlns="http://www.w3.org/2000/svg"
 width="241.000000pt" height="241.000000pt" viewBox="0 0 241.000000 241.000000"
 preserveAspectRatio="xMidYMid meet">
<metadata>
Created by potrace 1.14, written by Peter Selinger 2001-2017
</metadata>
<g transform="translate(0.000000,241.000000) scale(0.100000,-0.100000)"
fill="#000000" stroke="none">
<path d="M1139 2235 c-35 -25 -71 -49 -79 -55 -8 -5 -76 -52 -150 -103 -74
-51 -187 -127 -250 -170 -63 -43 -196 -134 -295 -202 -99 -69 -221 -152 -271
-186 -105 -70 -100 -51 -48 -200 52 -146 186 -534 188 -544 2 -5 6 -17 9 -25
3 -8 28 -80 56 -160 27 -80 72 -210 99 -290 28 -80 53 -152 56 -161 6 -14 85
-15 751 -15 663 0 745 2 751 15 3 9 30 86 59 171 30 85 97 281 150 435 53 154
130 377 171 495 l74 215 -22 15 c-190 130 -395 270 -403 277 -5 4 -48 34 -95
65 -47 31 -132 89 -190 128 -276 190 -476 327 -486 333 -6 3 -40 -14 -75 -38z"/>
</g>
</svg>
